<svg width="1440" height="4750" viewBox="0 0 1440 4750" fill="none" xmlns="http://www.w3.org/2000/svg">
<g clip-path="url(#clip0_96_2)">
<rect width="1440" height="4750" fill="black"/>
<g opacity="0.6" filter="url(#filter0_f_96_2)">
<ellipse cx="-775.27" cy="2811.99" rx="521.829" ry="603.678" transform="rotate(-74.2305 -775.27 2811.99)" fill="#5E19F0"/>
<path d="M-633.997 2311.73C-313.933 2402.11 -118.286 2699.47 -196.237 2975.51C-274.188 3251.54 -596.479 3402.64 -916.542 3312.26C-1236.61 3221.87 -1432.25 2924.51 -1354.3 2648.47C-1276.35 2372.44 -954.061 2221.34 -633.997 2311.73Z" stroke="black" stroke-width="4"/>
</g>
<g opacity="0.6" filter="url(#filter1_f_96_2)">
<ellipse cx="-659.211" cy="3264.21" rx="348.187" ry="603.678" transform="rotate(-74.2305 -659.211 3264.21)" fill="#3719F0"/>
<path d="M-565.129 2931.06C-404.977 2976.28 -270.656 3054.65 -182.934 3144.68C-95.1681 3234.76 -54.3244 3336.18 -80.178 3427.73C-106.032 3519.28 -193.894 3584.36 -315.813 3615.22C-437.672 3646.07 -593.142 3642.6 -753.293 3597.37C-913.444 3552.15 -1047.77 3473.78 -1135.49 3383.75C-1223.25 3293.67 -1264.1 3192.25 -1238.24 3100.7C-1212.39 3009.15 -1124.53 2944.07 -1002.61 2913.21C-880.749 2882.36 -725.28 2885.83 -565.129 2931.06Z" stroke="black" stroke-width="4"/>
</g>
<g filter="url(#filter2_f_96_2)">
<path d="M-911.946 2962.86C-960.488 3125.96 -901.977 3375.85 -197.535 3544.72C-21.8582 3101.35 330.522 2207.48 334.632 2178.86C339.77 2143.08 -200.496 1704.9 -214.93 1690.08C-229.363 1675.27 -373.148 1586.71 -855.966 1758.17C-1338.78 1929.63 -1097.25 2257.69 -941.261 2482.13C-785.271 2706.57 -863.404 2799.76 -911.946 2962.86Z" fill="#6849E1"/>
<path d="M-911.946 2962.86C-960.488 3125.96 -901.977 3375.85 -197.535 3544.72C-21.8582 3101.35 330.522 2207.48 334.632 2178.86C339.77 2143.08 -200.496 1704.9 -214.93 1690.08C-229.363 1675.27 -373.148 1586.71 -855.966 1758.17C-1338.78 1929.63 -1097.25 2257.69 -941.261 2482.13C-785.271 2706.57 -863.404 2799.76 -911.946 2962.86Z" stroke="black" stroke-width="4"/>
</g>
<mask id="mask0_96_2" style="mask-type:alpha" maskUnits="userSpaceOnUse" x="-1144" y="1768" width="1036" height="929">
<path d="M-960.626 1773.08C-852.766 1759.49 -717.607 1798.36 -586.074 1872.53C-454.55 1946.7 -326.872 2056.06 -234.342 2183.06C-141.813 2310.06 -102.053 2430.5 -112.468 2522.55C-122.884 2614.61 -183.44 2678.13 -291.3 2691.72C-399.16 2705.31 -534.318 2666.45 -665.852 2592.27C-797.376 2518.1 -925.054 2408.74 -1017.58 2281.74C-1110.11 2154.75 -1149.87 2034.31 -1139.46 1942.25C-1129.04 1850.2 -1068.49 1786.67 -960.626 1773.08Z" fill="url(#paint0_radial_96_2)" stroke="white" stroke-width="4"/>
</mask>
<g mask="url(#mask0_96_2)">
</g>
<g opacity="0.6" filter="url(#filter3_f_96_2)">
<ellipse cx="-380.59" cy="2194.21" rx="148.385" ry="257.267" transform="rotate(-74.2305 -380.59 2194.21)" fill="#B819F0"/>
<path d="M-340.807 2053.33C-272.715 2072.56 -215.659 2105.87 -178.439 2144.07C-141.176 2182.31 -124.071 2225.13 -134.931 2263.58C-145.79 2302.03 -182.764 2329.58 -234.527 2342.68C-286.232 2355.77 -352.28 2354.31 -420.373 2335.08C-488.466 2315.85 -545.521 2282.55 -582.741 2244.35C-620.004 2206.1 -637.109 2163.29 -626.25 2124.83C-615.391 2086.38 -578.417 2058.84 -526.653 2045.73C-474.949 2032.64 -408.9 2034.1 -340.807 2053.33Z" stroke="black" stroke-width="4"/>
</g>
<g opacity="0.6" filter="url(#filter4_f_96_2)">
<ellipse cx="-11.0115" cy="4647.69" rx="893.944" ry="852.651" transform="rotate(28.7267 -11.0115 4647.69)" fill="#5E19F0"/>
<path d="M771.154 5076.39C545.395 5488.29 12.1957 5630.45 -419.861 5393.64C-851.919 5156.84 -1018.94 4630.9 -793.177 4218.99C-567.418 3807.09 -34.2187 3664.93 397.838 3901.74C829.896 4138.54 996.913 4664.48 771.154 5076.39Z" stroke="black" stroke-width="4"/>
</g>
<g opacity="0.6" filter="url(#filter5_f_96_2)">
<ellipse cx="-776.667" cy="4605.89" rx="596.478" ry="852.651" transform="rotate(28.7267 -776.667 4605.89)" fill="#3719F0"/>
<path d="M-255.357 4891.61C-368.35 5097.77 -529.064 5252.3 -697.471 5335.52C-865.885 5418.75 -1041.81 5430.61 -1185.52 5351.84C-1329.23 5273.08 -1413.88 5118.4 -1434.32 4931.66C-1454.77 4744.93 -1410.97 4526.32 -1297.98 4320.16C-1184.98 4114 -1024.27 3959.48 -855.863 3876.25C-687.45 3793.02 -511.528 3781.17 -367.817 3859.93C-224.107 3938.7 -139.458 4093.37 -119.013 4280.11C-98.5676 4466.85 -142.363 4685.45 -255.357 4891.61Z" stroke="black" stroke-width="4"/>
</g>
<g filter="url(#filter6_f_96_2)">
<path d="M-223.469 4385.38C-477.466 4242.32 -899.169 4211.27 -1347.07 5131.61C-667.352 5582.39 703.503 6488.67 749.149 6507.54C806.207 6531.11 1652.93 5965.95 1680.62 5952.27C1708.3 5938.59 1887.91 5775.39 1726.71 5013.7C1565.5 4252.01 971.512 4444.44 567.403 4562.98C163.293 4681.53 30.5274 4528.44 -223.469 4385.38Z" fill="#6849E1"/>
<path d="M-223.469 4385.38C-477.466 4242.32 -899.169 4211.27 -1347.07 5131.61C-667.352 5582.39 703.503 6488.67 749.149 6507.54C806.207 6531.11 1652.93 5965.95 1680.62 5952.27C1708.3 5938.59 1887.91 5775.39 1726.71 5013.7C1565.5 4252.01 971.512 4444.44 567.403 4562.98C163.293 4681.53 30.5274 4528.44 -223.469 4385.38Z" stroke="black" stroke-width="4"/>
</g>
<mask id="mask1_96_2" style="mask-type:alpha" maskUnits="userSpaceOnUse" x="63" y="4485" width="1669" height="1277">
<path d="M1729.06 4858.41C1724.77 5017.65 1628.08 5191.6 1474.73 5344.21C1321.4 5496.81 1111.6 5627.85 881.697 5701.03C651.794 5774.21 445.487 5775.62 297.785 5718.84C150.068 5662.06 61.1511 5547.19 65.4365 5387.95C69.722 5228.72 166.412 5054.77 319.764 4902.15C473.101 4749.56 682.896 4618.52 912.8 4545.34C1142.7 4472.16 1349.01 4470.75 1496.71 4527.52C1644.43 4584.3 1733.35 4699.17 1729.06 4858.41Z" fill="url(#paint1_radial_96_2)" stroke="white" stroke-width="4"/>
</mask>
<g mask="url(#mask1_96_2)">
<path d="M47.158 5309.94C-59.3867 5309.99 -102.617 5346.16 -210.208 5427.5L348.736 6278.36C789.113 5951.54 1595.91 5305.68 1501 5150.79C1401.68 4988.73 1162.23 4902.31 975.033 4922.92C787.838 4943.53 505.455 5200.11 392.54 5284.62C287.927 5362.92 153.703 5309.89 47.158 5309.94Z" fill="#7C7AEA" stroke="black" stroke-width="4"/>
<g>
<path d="M48.2197 5308C-58.3249 5308.05 -101.555 5344.22 -209.147 5425.56L349.798 6276.42C790.175 5949.61 1617.27 5149.3 1522.36 4994.42C1447.3 4871.94 1166.18 4913.37 1016.97 4943.93C968.734 4953.81 974.689 4998.23 952.962 4988.91C794.724 4921.04 506.517 5198.18 393.601 5282.69C288.988 5360.98 154.764 5307.96 48.2197 5308Z" fill="#7C7AEA"/>
</g>
<path d="M48.2197 5308C-58.3249 5308.05 -101.555 5344.22 -209.147 5425.56L349.798 6276.42C790.175 5949.61 1617.27 5149.3 1522.36 4994.42C1447.3 4871.94 1166.18 4913.37 1016.97 4943.93C968.734 4953.81 974.689 4998.23 952.962 4988.91C794.724 4921.04 506.517 5198.18 393.601 5282.69C288.988 5360.98 154.764 5307.96 48.2197 5308Z" stroke="black" stroke-width="4"/>
<g>
<path d="M33.97 5282.56C-72.5747 5282.61 -115.805 5318.78 -223.396 5400.12L348.736 6278.36C789.113 5951.54 1447.94 5164.12 1353.03 5009.24C1264 4863.95 1140.62 4910.89 988.561 4939.5C970.994 4942.81 988.274 4957.72 968.887 4959.86C781.692 4980.47 492.267 5172.73 379.352 5257.24C274.739 5335.54 140.515 5282.51 33.97 5282.56Z" fill="#7C7AEA"/>
</g>
<path d="M33.97 5282.56C-72.5747 5282.61 -115.805 5318.78 -223.396 5400.12L348.736 6278.36C789.113 5951.54 1447.94 5164.12 1353.03 5009.24C1264 4863.95 1140.62 4910.89 988.561 4939.5C970.994 4942.81 988.274 4957.72 968.887 4959.86C781.692 4980.47 492.267 5172.73 379.352 5257.24C274.739 5335.54 140.515 5282.51 33.97 5282.56Z" stroke="black" stroke-width="4"/>
<g>
<path d="M20.782 5255.18C-85.7626 5255.23 -128.993 5291.4 -236.584 5372.74L348.736 6278.36C789.113 5951.54 1713.37 5168.53 1618.45 5013.65C1538.35 4882.93 1243 4931.98 1075.69 4933.25C1035.57 4933.56 998.9 4957.52 962.698 4961.5C775.503 4982.11 479.079 5145.35 366.164 5229.86C261.551 5308.16 127.327 5255.13 20.782 5255.18Z" fill="#7C7AEA"/>
</g>
<path d="M20.782 5255.18C-85.7626 5255.23 -128.993 5291.4 -236.584 5372.74L348.736 6278.36C789.113 5951.54 1713.37 5168.53 1618.45 5013.65C1538.35 4882.93 1243 4931.98 1075.69 4933.25C1035.57 4933.56 998.9 4957.52 962.698 4961.5C775.503 4982.11 479.079 5145.35 366.164 5229.86C261.551 5308.16 127.327 5255.13 20.782 5255.18Z" stroke="black" stroke-width="4"/>
<g>
<path d="M-25.1296 5174.98C-131.674 5175.02 -174.905 5211.2 -282.496 5292.54L307.518 6241.03C747.896 5914.22 1406.72 5126.79 1311.81 4971.91C1238.2 4851.79 1087.48 4933.33 1011.5 4950.7C984.97 4956.77 1021.26 5011.97 982.51 4990.73C832.773 4908.66 737.595 5149.48 409.698 5162.94C303.007 5167.32 81.415 5174.93 -25.1296 5174.98Z" fill="#7C7AEA"/>
</g>
<path d="M-25.1296 5174.98C-131.674 5175.02 -174.905 5211.2 -282.496 5292.54L307.518 6241.03C747.896 5914.22 1406.72 5126.79 1311.81 4971.91C1238.2 4851.79 1087.48 4933.33 1011.5 4950.7C984.97 4956.77 1021.26 5011.97 982.51 4990.73C832.773 4908.66 737.595 5149.48 409.698 5162.94C303.007 5167.32 81.415 5174.93 -25.1296 5174.98Z" stroke="black" stroke-width="4"/>
</g>
<g opacity="0.3" filter="url(#filter11_f_96_2)">
<ellipse cx="-90.0085" cy="4955.81" rx="569.435" ry="363.371" transform="rotate(28.7267 -90.0085 4955.81)" fill="black"/>
<path d="M407.588 5228.54C359.802 5315.73 261.02 5364.55 139.458 5372.66C17.9233 5380.77 -126.086 5348.13 -263.695 5272.7C-401.304 5197.28 -506.293 5093.45 -564.843 4986.64C-623.407 4879.81 -635.391 4770.27 -587.605 4683.08C-539.819 4595.9 -441.037 4547.07 -319.475 4538.96C-197.94 4530.85 -53.9311 4563.49 83.6778 4638.92C221.287 4714.34 326.276 4818.17 384.826 4924.98C443.39 5031.81 455.374 5141.35 407.588 5228.54Z" stroke="black" stroke-width="4"/>
</g>
<g opacity="0.6">
<g>
<ellipse cx="306.465" cy="94.9239" rx="306.465" ry="94.9239" transform="matrix(0.922614 -0.385724 0.0487996 0.998809 139.521 5143.08)" fill="#28009B"/>
</g>
<path d="M707.806 5002.24C708.4 5014.39 701.635 5029.41 688.066 5046.5C674.534 5063.55 654.54 5082.25 629.473 5101.45C579.361 5139.83 509.384 5179.9 431.437 5212.49C353.491 5245.08 282.478 5263.95 230.697 5268.17C204.795 5270.28 183.811 5268.71 169.188 5263.43C154.525 5258.14 146.593 5249.27 145.999 5237.12C145.405 5224.96 152.17 5209.94 165.739 5192.85C179.272 5175.8 199.266 5157.1 224.333 5137.9C274.444 5099.52 344.421 5059.45 422.368 5026.86C500.315 4994.27 571.327 4975.4 623.108 4971.18C649.01 4969.07 669.994 4970.64 684.617 4975.92C699.28 4981.21 707.213 4990.09 707.806 5002.24Z" stroke="black" stroke-width="4"/>
</g>
<mask id="mask2_96_2" style="mask-type:alpha" maskUnits="userSpaceOnUse" x="-2065" y="3472" width="2746" height="2214">
<path d="M-2061.47 5203.24C-1799.19 4547.99 -1502.19 3508.71 -1491.09 3475.56L677.139 4251.17L-230.988 5682.92L-2061.47 5203.24Z" fill="url(#paint2_linear_96_2)" stroke="white" stroke-width="4"/>
</mask>
<g mask="url(#mask2_96_2)">
<g>
<path d="M-577.237 4219.39C-256.772 4303.37 -71.2769 4602.25 -139.87 4774.2C-208.463 4946.14 -450.062 5088.14 -770.527 5004.16C-929.333 4962.55 -1148.33 4977.64 -1302.85 4842.57C-1460.14 4705.08 -1322.92 4482.01 -1288.31 4395.27C-1219.72 4223.33 -897.702 4135.41 -577.237 4219.39Z" fill="#7371FF"/>
</g>
<path d="M-577.978 4221.25C-418.208 4263.12 -292.054 4358.57 -214.408 4464.99C-136.691 4571.51 -107.853 4688.58 -141.805 4773.69C-209.891 4944.36 -450.114 5086.08 -769.786 5002.3C-809.61 4991.87 -853.177 4985 -898.456 4978.45C-905.824 4977.38 -913.237 4976.32 -920.687 4975.26C-959.056 4969.79 -998.414 4964.18 -1037.68 4956.52C-1131.44 4938.24 -1224.44 4908.34 -1301.35 4841.11C-1379.35 4772.93 -1384.41 4683.54 -1365.52 4600.1C-1351.72 4539.14 -1325.25 4481.71 -1305.16 4438.11C-1297.69 4421.91 -1291.11 4407.63 -1286.38 4395.78C-1252.46 4310.75 -1155.68 4246.11 -1026.87 4213.21C-898.145 4180.35 -737.904 4179.34 -577.978 4221.25Z" stroke="black" stroke-width="4"/>
<g filter="url(#filter14_f_96_2)">
<path d="M-479.888 4320.71C-148.716 4407.5 43.9342 4713.96 -26.2229 4889.82C-96.38 5065.69 -345.264 5210.46 -676.435 5123.68C-840.546 5080.67 -1066.58 5095.57 -1226.62 4956.9C-1389.54 4815.74 -1248.72 4587.71 -1213.33 4498.99C-1143.18 4323.13 -811.059 4233.93 -479.888 4320.71Z" fill="#7371FF"/>
<path d="M-480.629 4322.57C-315.501 4365.84 -184.88 4463.89 -104.303 4573.05C-23.6529 4682.31 6.57283 4802.26 -28.1575 4889.32C-97.8009 5063.89 -345.296 5208.4 -675.694 5121.82C-716.843 5111.04 -761.844 5103.89 -808.614 5097.07C-816.225 5095.96 -823.882 5094.86 -831.577 5093.76C-871.21 5088.06 -911.868 5082.21 -952.44 5074.28C-1049.31 5055.32 -1145.46 5024.47 -1225.13 4955.43C-1305.94 4885.41 -1311.5 4793.87 -1292.32 4708.49C-1278.3 4646.11 -1251.19 4587.37 -1230.62 4542.79C-1222.97 4526.22 -1216.23 4511.61 -1211.4 4499.5C-1176.7 4412.52 -1077.01 4346.57 -944.14 4313.21C-811.356 4279.88 -645.912 4279.26 -480.629 4322.57Z" stroke="black" stroke-width="4"/>
</g>
</g>
<g opacity="0.6" filter="url(#filter15_f_96_2)">
<ellipse cx="1846.13" cy="3231.93" rx="521.829" ry="603.678" transform="rotate(-57.821 1846.13 3231.93)" fill="#5E19F0"/>
<path d="M2122.97 2791.96C2404.46 2969.08 2508.14 3309.6 2355.38 3552.37C2202.62 3795.14 1850.78 3849.03 1569.28 3671.91C1287.79 3494.79 1184.12 3154.27 1336.87 2911.5C1489.63 2668.73 1841.48 2614.84 2122.97 2791.96Z" stroke="black" stroke-width="4"/>
</g>
<g opacity="0.6" filter="url(#filter16_f_96_2)">
<ellipse cx="1829.7" cy="3698.52" rx="348.187" ry="603.678" transform="rotate(-57.821 1829.7 3698.52)" fill="#3719F0"/>
<path d="M2014.07 3405.52C2154.92 3494.14 2261.64 3607.26 2320.35 3718.41C2379.09 3829.61 2389.62 3938.44 2338.96 4018.96C2288.29 4099.48 2185.63 4137.08 2059.95 4132.24C1934.34 4127.41 1786.19 4080.16 1645.34 3991.53C1504.49 3902.91 1397.77 3789.79 1339.06 3678.64C1280.32 3567.44 1269.79 3458.61 1320.45 3378.09C1371.11 3297.57 1473.78 3259.97 1599.45 3264.8C1725.06 3269.64 1873.22 3316.89 2014.07 3405.52Z" stroke="black" stroke-width="4"/>
</g>
<g>
<path d="M1672.37 3338.04C1579.73 3480.79 1565.27 3737.03 2193.31 4098.02C2487.08 3722.35 3077.63 2964.43 3089.66 2938.14C3104.69 2905.27 2710.22 2332.31 2700.56 2314.02C2690.9 2295.73 2577.99 2170.16 2066.4 2198.24C1554.81 2226.32 1693.83 2609.25 1780.06 2868.61C1866.29 3127.98 1765.02 3195.3 1672.37 3338.04Z" fill="#6849E1"/>
</g>
<path d="M1672.37 3338.04C1579.73 3480.79 1565.27 3737.03 2193.31 4098.02C2487.08 3722.35 3077.63 2964.43 3089.66 2938.14C3104.69 2905.27 2710.22 2332.31 2700.56 2314.02C2690.9 2295.73 2577.99 2170.16 2066.4 2198.24C1554.81 2226.32 1693.83 2609.25 1780.06 2868.61C1866.29 3127.98 1765.02 3195.3 1672.37 3338.04Z" stroke="black" stroke-width="4"/>
<mask id="mask3_96_2" style="mask-type:alpha" maskUnits="userSpaceOnUse" x="1075" y="2769" width="1476" height="1778">
<path d="M2252.66 4543.68C1806.39 4321.46 1100.39 4042.11 1077.85 4032.2L1567.92 2772.13L2548.21 3463.58L2252.66 4543.68Z" fill="url(#paint3_linear_96_2)" stroke="white" stroke-width="4"/>
</mask>
<g mask="url(#mask3_96_2)">
<path d="M1476.74 3586.95C1493.24 3526.66 1535.11 3484.32 1584.93 3463.01C1634.77 3441.7 1692.34 3441.52 1740.07 3465.23C1788.12 3489.1 1840.24 3528.93 1875.86 3578.93C1911.43 3628.85 1930.51 3688.81 1912.84 3753.35C1908.33 3769.86 1907.7 3789.2 1908.17 3809.56C1908.35 3817.71 1908.71 3825.98 1909.07 3834.31C1909.61 3846.98 1910.16 3859.8 1910.13 3872.59C1910.03 3914.77 1903.54 3954.93 1869.61 3980.97C1835.08 4007.47 1786.5 4000.43 1740.03 3983.39C1706.16 3970.98 1673.83 3953.43 1649.27 3940.09C1640.13 3935.13 1632.06 3930.75 1625.39 3927.44C1577.71 3903.75 1532.24 3848.91 1502.82 3784.66C1473.42 3720.42 1460.26 3647.2 1476.74 3586.95Z" fill="#7371FF" stroke="black" stroke-width="4"/>
<g>
<path d="M1482.82 3591.63C1518.57 3460.98 1636.75 3413.47 1719.76 3454.71C1802.76 3495.94 1898.21 3599.35 1862.46 3730C1844.74 3794.74 1880.88 3901.99 1818.49 3958.38C1754.99 4015.78 1646.65 3941.74 1604.77 3920.93C1521.77 3879.7 1447.07 3722.28 1482.82 3591.63Z" fill="#7371FF"/>
</g>
<path d="M1484.61 3592.52C1520.12 3462.76 1637.37 3415.97 1719.23 3456.64C1760.45 3477.11 1804.7 3513.01 1834.17 3559.88C1863.6 3606.67 1878.36 3664.46 1860.66 3729.11C1856.16 3745.58 1855.1 3764.66 1855.02 3784.75C1854.99 3793.07 1855.12 3801.52 1855.26 3810.03C1855.45 3822.23 1855.65 3834.59 1855.36 3846.96C1854.38 3888.73 1847.85 3928.94 1817.21 3956.64C1786.09 3984.77 1743.86 3980.82 1703.82 3966.96C1674.6 3956.84 1646.93 3941.61 1625.86 3930.01C1618 3925.69 1611.06 3921.87 1605.3 3919.01C1564.46 3898.71 1525.37 3849.64 1500.94 3789.17C1476.53 3728.76 1466.89 3657.29 1484.61 3592.52Z" stroke="black" stroke-width="4"/>
<g>
<path d="M1483.91 3587.68C1523.98 3441.24 1666.8 3393.15 1769.14 3443.98C1871.48 3494.82 1990.66 3616.78 1950.59 3763.22C1930.74 3835.78 1987.23 3963.93 1912.68 4024.83C1836.79 4086.82 1694.01 3993.23 1642.39 3967.59C1540.05 3916.75 1443.84 3734.11 1483.91 3587.68Z" fill="#7371FF"/>
</g>
<path d="M1485.7 3588.56C1525.48 3443.2 1667.26 3395.57 1768.61 3445.91C1819.53 3471.21 1874.57 3514.17 1911.86 3568.89C1949.09 3623.53 1968.63 3689.87 1948.8 3762.33C1943.74 3780.82 1943.57 3802.75 1944.91 3825.98C1945.52 3836.54 1946.45 3847.43 1947.39 3858.42C1947.48 3859.52 1947.57 3860.62 1947.67 3861.72C1948.7 3873.85 1949.7 3886.08 1950.28 3898.21C1952.6 3946.75 1948.06 3993.15 1911.45 4023.05C1874.18 4053.49 1820.27 4045.87 1768.76 4027.06C1731.05 4013.29 1695.08 3993.71 1668.28 3979.13C1658.48 3973.79 1649.9 3969.13 1642.92 3965.66C1592.34 3940.53 1543.05 3882.68 1511.38 3812.74C1479.73 3742.83 1465.83 3661.16 1485.7 3588.56Z" stroke="black" stroke-width="4"/>
<g>
<path d="M1500.65 3576.8C1575.23 3408.47 1748.94 3324.65 1868.71 3384.15C1988.48 3443.65 2092.86 3599.73 2044.8 3775.35C2020.99 3862.38 2120.91 4039.1 2032.98 4112.87C1943.46 4187.96 1786.65 4082.88 1726.23 4052.87C1606.46 3993.37 1414.26 3771.79 1500.65 3576.8Z" fill="#7371FF"/>
</g>
<path d="M1502.35 3577.96C1539.47 3494.17 1601.28 3431.4 1668.69 3397C1736.15 3362.58 1808.97 3356.66 1868.18 3386.08C1987.19 3445.2 2090.71 3600.13 2043.01 3774.46C2036.93 3796.69 2038.78 3824.48 2043.43 3854.5C2045.77 3869.54 2048.81 3885.21 2051.96 3901.11C2052.28 3902.71 2052.59 3904.3 2052.91 3905.9C2055.76 3920.26 2058.63 3934.77 2061.1 3949.19C2072.11 4013.45 2074.87 4074.91 2031.73 4111.1C1987.62 4148.1 1926.78 4140.84 1869 4120.26C1826.86 4105.25 1786.76 4083.33 1756.32 4066.68C1745 4060.5 1735.02 4055.04 1726.76 4050.94C1667.28 4021.39 1589.62 3951.45 1537.63 3864.63C1485.67 3777.87 1459.53 3674.61 1502.35 3577.96Z" stroke="black" stroke-width="4"/>
<g>
<path d="M1565.79 3539.96C1617.54 3350.87 1816.4 3264.73 1933.5 3322.91C2050.6 3381.08 2150.16 3542.77 2098.42 3731.87C2072.78 3825.57 2086.33 3961.55 1997.56 4043.91C1907.18 4127.75 1754.52 4022.64 1695.45 3993.3C1578.34 3935.13 1514.05 3729.06 1565.79 3539.96Z" fill="#7371FF"/>
</g>
<path d="M1567.58 3540.85C1593.3 3446.86 1655.61 3378.39 1726.12 3340.66C1796.69 3302.89 1875.12 3296.1 1932.97 3324.83C2049.14 3382.54 2148.06 3543 2096.63 3730.98C2090.18 3754.55 2086.2 3780.74 2082.48 3807.96C2081.87 3812.39 2081.27 3816.85 2080.67 3821.33C2077.57 3844.4 2074.39 3868.02 2069.84 3891.4C2058.96 3947.21 2040.27 4001.35 1996.26 4042.19C1951.69 4083.53 1891.68 4078.41 1835.05 4059.02C1793.73 4044.87 1754.6 4023.28 1724.88 4006.87C1713.82 4000.77 1704.06 3995.39 1695.97 3991.37C1638.18 3962.66 1593.18 3897.32 1569.07 3815.33C1544.96 3733.37 1541.81 3635.03 1567.58 3540.85Z" stroke="black" stroke-width="4"/>
<g filter="url(#filter22_f_96_2)">
<path d="M1632.67 3489.58C1686.15 3294.17 1890.01 3204.35 2009.79 3263.85C2129.56 3323.34 2231.1 3489.77 2177.63 3685.18C2151.13 3782.02 2164.67 3922.31 2073.54 4007.73C1980.78 4094.68 1824.71 3986.9 1764.29 3956.89C1644.52 3897.39 1579.2 3685 1632.67 3489.58Z" fill="#7371FF"/>
<path d="M1634.47 3490.47C1661.05 3393.32 1725.05 3322.34 1797.36 3283.07C1869.73 3243.76 1950.08 3236.38 2009.26 3265.78C2128.08 3324.8 2229.01 3489.98 2175.84 3684.29C2169.18 3708.65 2165.04 3735.7 2161.16 3763.8C2160.52 3768.38 2159.9 3772.99 2159.27 3777.61C2156.04 3801.44 2152.72 3825.84 2148 3850C2136.72 3907.65 2117.43 3963.64 2072.24 4006.01C2026.48 4048.9 1965.01 4043.89 1907.08 4024.14C1864.79 4009.73 1824.77 3987.62 1794.37 3970.83C1783.07 3964.58 1773.09 3959.07 1764.82 3954.96C1705.7 3925.59 1659.78 3858.35 1635.28 3773.82C1610.8 3689.32 1607.83 3587.81 1634.47 3490.47Z" stroke="black" stroke-width="4"/>
</g>
<g>
<path d="M1573.41 3627.1C1620.2 3456.11 1818.31 3387.32 1938.09 3446.82C2057.86 3506.31 2162.89 3659.98 2116.1 3830.96C2092.92 3915.7 2096.63 4034.4 2009.44 4105.44C1920.68 4177.76 1763.7 4073.31 1703.28 4043.3C1583.51 3983.8 1526.62 3798.09 1573.41 3627.1Z" fill="#7371FF"/>
</g>
<path d="M1575.2 3627.99C1598.42 3543.14 1659.23 3483.52 1729.27 3452.52C1799.33 3421.51 1878.29 3419.3 1937.56 3448.75C2056.61 3507.89 2160.74 3660.42 2114.31 3830.07C2108.52 3851.25 2104.4 3874.52 2100.15 3898.51L2100.08 3898.91C2095.81 3923.07 2091.39 3947.99 2084.98 3972.47C2072.17 4021.39 2051.44 4068.43 2008.21 4103.66C1964.49 4139.28 1903.79 4131.49 1846.05 4110.72C1803.94 4095.58 1763.82 4073.7 1733.37 4057.09C1722.05 4050.91 1712.06 4045.47 1703.81 4041.37C1644.61 4011.96 1600.83 3951.31 1577.64 3876.57C1554.45 3801.82 1551.91 3713.11 1575.2 3627.99Z" stroke="black" stroke-width="4"/>
</g>
<g opacity="0.6" filter="url(#filter24_f_96_2)">
<ellipse cx="535.5" cy="941.829" rx="578.5" ry="565.881" fill="#5E19F0"/>
<path d="M1112 941.829C1112 1253.21 853.934 1505.71 535.5 1505.71C217.066 1505.71 -41.0002 1253.21 -41.0002 941.829C-41.0002 630.448 217.066 377.948 535.5 377.948C853.934 377.948 1112 630.448 1112 941.829Z" stroke="white" stroke-width="4"/>
</g>
<g opacity="0.6" filter="url(#filter25_f_96_2)">
<ellipse cx="87.9998" cy="1161.73" rx="386" ry="565.881" fill="#3719F0"/>
<path d="M472 1161.73C472 1317.65 428.888 1458.71 359.291 1560.74C289.686 1662.78 193.735 1725.61 87.9998 1725.61C-17.7357 1725.61 -113.687 1662.78 -183.291 1560.74C-252.889 1458.71 -296 1317.65 -296 1161.73C-296 1005.82 -252.889 864.751 -183.291 762.72C-113.687 660.679 -17.7357 597.851 87.9998 597.851C193.735 597.851 289.686 660.679 359.291 762.72C428.888 864.751 472 1005.82 472 1161.73Z" stroke="white" stroke-width="4"/>
</g>
<g filter="url(#filter26_f_96_2)">
<path d="M333.341 856.927C144.705 854.688 -104.263 971.13 -72.1876 1649.63C453.753 1695.16 1513.58 1785.33 1545.35 1781.75C1585.06 1777.27 1889.78 1178.26 1901.23 1161.47C1912.69 1144.67 1963.86 992.404 1635.46 600.53C1307.07 208.656 1029.84 510.119 837.389 708.015C644.935 905.912 521.977 859.167 333.341 856.927Z" fill="#6849E1"/>
<path d="M333.341 856.927C144.705 854.688 -104.263 971.13 -72.1876 1649.63C453.753 1695.16 1513.58 1785.33 1545.35 1781.75C1585.06 1777.27 1889.78 1178.26 1901.23 1161.47C1912.69 1144.67 1963.86 992.404 1635.46 600.53C1307.07 208.656 1029.84 510.119 837.389 708.015C644.935 905.912 521.977 859.167 333.341 856.927Z" stroke="white" stroke-width="4"/>
</g>
<mask id="mask4_96_2" style="mask-type:alpha" maskUnits="userSpaceOnUse" x="772" y="386" width="854" height="1086">
<path d="M1588.03 509.905C1634.99 603.685 1634.27 735.468 1594.76 873.037C1555.25 1010.59 1477.03 1153.64 1369.41 1269.48C1261.79 1385.32 1145.26 1451.87 1043.9 1465.93C942.539 1479.99 856.556 1441.53 809.592 1347.75C762.627 1253.97 763.354 1122.19 802.864 984.622C842.369 847.071 920.588 704.016 1028.21 588.178C1135.84 472.34 1252.37 405.784 1353.72 391.728C1455.08 377.671 1541.07 416.126 1588.03 509.905Z" fill="url(#paint4_radial_96_2)" stroke="white" stroke-width="4"/>
</mask>
<g mask="url(#mask4_96_2)">
<path d="M774.485 1308.68C714.037 1342.7 700.756 1377.54 664.999 1459.2L1246.84 1776.1C1395.09 1445.42 1652.05 812.178 1550.02 752.314C1443.25 689.672 1280.49 715.763 1180.67 787.469C1080.85 859.175 1000.4 1098.58 962.61 1183.78C927.597 1262.72 834.933 1274.67 774.485 1308.68Z" fill="#7C7AEA" stroke="white" stroke-width="4"/>
<g filter="url(#filter27_f_96_2)">
<path d="M774.485 1307.22C714.037 1341.23 700.756 1376.07 664.999 1457.73L1246.84 1774.63C1395.09 1443.95 1615.53 714.355 1513.5 654.49C1432.82 607.152 1286.17 720.935 1211 786.316C1186.7 807.453 1203.89 831.408 1188.67 832.915C1077.76 843.89 1000.4 1097.11 962.61 1182.31C927.597 1261.25 834.933 1273.21 774.485 1307.22Z" fill="#7C7AEA"/>
<path d="M774.485 1307.22C714.037 1341.23 700.756 1376.07 664.999 1457.73L1246.84 1774.63C1395.09 1443.95 1615.53 714.355 1513.5 654.49C1432.82 607.152 1286.17 720.935 1211 786.316C1186.7 807.453 1203.89 831.408 1188.67 832.915C1077.76 843.89 1000.4 1097.11 962.61 1182.31C927.597 1261.25 834.933 1273.21 774.485 1307.22Z" stroke="white" stroke-width="4"/>
</g>
<g filter="url(#filter28_f_96_2)">
<path d="M758.485 1296.96C698.037 1330.97 684.756 1365.81 648.999 1447.47L1246.84 1776.1C1395.09 1445.42 1524.05 776.994 1422.02 717.129C1326.31 660.975 1270.89 727.647 1193.5 792.803C1184.56 800.33 1199 803.499 1188.67 810.925C1088.85 882.631 984.402 1086.85 946.61 1172.05C911.597 1250.99 818.933 1262.94 758.485 1296.96Z" fill="#7C7AEA"/>
<path d="M758.485 1296.96C698.037 1330.97 684.756 1365.81 648.999 1447.47L1246.84 1776.1C1395.09 1445.42 1524.05 776.994 1422.02 717.129C1326.31 660.975 1270.89 727.647 1193.5 792.803C1184.56 800.33 1199 803.499 1188.67 810.925C1088.85 882.631 984.402 1086.85 946.61 1172.05C911.597 1250.99 818.933 1262.94 758.485 1296.96Z" stroke="white" stroke-width="4"/>
</g>
<g filter="url(#filter29_f_96_2)">
<path d="M742.485 1285.23C682.037 1319.24 668.756 1354.08 632.999 1435.74L1246.84 1776.1C1395.09 1445.42 1676.05 694.897 1574.02 635.033C1487.9 584.505 1335.55 707.259 1241 761.372C1218.33 774.346 1204.97 799.99 1185.67 813.857C1085.85 885.564 968.402 1075.12 930.61 1160.32C895.597 1239.26 802.933 1251.22 742.485 1285.23Z" fill="#7C7AEA"/>
<path d="M742.485 1285.23C682.037 1319.24 668.756 1354.08 632.999 1435.74L1246.84 1776.1C1395.09 1445.42 1676.05 694.897 1574.02 635.033C1487.9 584.505 1335.55 707.259 1241 761.372C1218.33 774.346 1204.97 799.99 1185.67 813.857C1085.85 885.564 968.402 1075.12 930.61 1160.32C895.597 1239.26 802.933 1251.22 742.485 1285.23Z" stroke="white" stroke-width="4"/>
</g>
<g filter="url(#filter30_f_96_2)">
<path d="M691.485 1253.2C631.037 1287.21 617.756 1322.05 581.999 1403.71L1211.84 1767.52C1360.09 1436.84 1489.05 768.419 1387.02 708.555C1307.88 662.125 1247.71 757.656 1210 792.003C1196.83 803.996 1234.6 824.548 1206 824.548C1095.5 824.548 1116.39 995.059 934.499 1107.49C875.316 1144.07 751.933 1219.18 691.485 1253.2Z" fill="#7C7AEA"/>
<path d="M691.485 1253.2C631.037 1287.21 617.756 1322.05 581.999 1403.71L1211.84 1767.52C1360.09 1436.84 1489.05 768.419 1387.02 708.555C1307.88 662.125 1247.71 757.656 1210 792.003C1196.83 803.996 1234.6 824.548 1206 824.548C1095.5 824.548 1116.39 995.059 934.499 1107.49C875.316 1144.07 751.933 1219.18 691.485 1253.2Z" stroke="white" stroke-width="4"/>
</g>
</g>
<g opacity="0.6" filter="url(#filter31_f_96_2)">
<ellipse cx="1313.5" cy="1140.47" rx="164.5" ry="241.159" fill="#B819F0"/>
<path d="M1476 1140.47C1476 1206.72 1457.68 1266.61 1428.17 1309.87C1398.65 1353.15 1358.07 1379.63 1313.5 1379.63C1268.93 1379.63 1228.35 1353.15 1198.83 1309.87C1169.32 1266.61 1151 1206.72 1151 1140.47C1151 1074.23 1169.32 1014.34 1198.83 971.076C1228.35 927.799 1268.93 901.316 1313.5 901.316C1358.07 901.316 1398.65 927.799 1428.17 971.076C1457.68 1014.34 1476 1074.23 1476 1140.47Z" stroke="white" stroke-width="4"/>
</g>
<g opacity="0.3" filter="url(#filter32_f_96_2)">
<ellipse cx="586.5" cy="1146.34" rx="368.5" ry="241.159" fill="black"/>
<path d="M953 1146.34C953 1212.04 912.306 1271.78 845.973 1315.19C779.658 1358.59 687.926 1385.5 586.5 1385.5C485.073 1385.5 393.341 1358.59 327.026 1315.19C260.693 1271.78 220 1212.04 220 1146.34C220 1080.64 260.693 1020.9 327.026 977.487C393.341 934.088 485.073 907.18 586.5 907.18C687.926 907.18 779.658 934.088 845.973 977.487C912.306 1020.9 953 1080.64 953 1146.34Z" stroke="white" stroke-width="4"/>
</g>
<g opacity="0.6" filter="url(#filter33_f_96_2)">
<ellipse cx="201.436" cy="62.5731" rx="201.436" ry="62.5731" transform="matrix(0.614033 -0.78928 0.513287 0.858217 775 1182.11)" fill="#28009B"/>
<path d="M1053.27 919.41C1057.22 926.02 1058.09 936.606 1055.72 950.779C1053.36 964.895 1047.87 982.069 1039.63 1001.2C1023.17 1039.44 995.965 1085.02 961.897 1128.81C927.83 1172.6 893.449 1206.18 865.44 1225.11C851.426 1234.58 839.093 1240.32 829.239 1241.9C819.344 1243.49 812.299 1240.84 808.346 1234.23C804.392 1227.62 803.523 1217.04 805.89 1202.86C808.247 1188.75 813.742 1171.57 821.979 1152.44C838.441 1114.21 865.647 1068.63 899.714 1024.84C933.782 981.046 968.162 947.461 996.172 928.533C1010.19 919.063 1022.52 913.321 1032.37 911.74C1042.27 910.153 1049.31 912.8 1053.27 919.41Z" stroke="white" stroke-width="4"/>
</g>
<mask id="mask5_96_2" style="mask-type:alpha" maskUnits="userSpaceOnUse" x="-672" y="489" width="1477" height="1433">
<path d="M-455.319 1919.2C-510.281 1454.19 -664.988 754.602 -669 731.771L802.678 491.538L732.651 1614.48L-455.319 1919.2Z" fill="url(#paint5_linear_96_2)" stroke="white" stroke-width="4"/>
</mask>
<g mask="url(#mask5_96_2)">
<path d="M-15.699 826.096C50.7691 809.046 115.306 821.172 164.72 850.064C214.168 878.977 248.243 924.531 254.157 974.081C260.121 1024.05 253.525 1085.21 227.666 1138.39C201.852 1191.47 156.819 1236.66 85.6156 1254.92C67.5342 1259.56 49.0725 1268.69 30.2452 1279.22C22.7291 1283.42 15.1865 1287.83 7.57718 1292.28C-3.99479 1299.04 -15.7214 1305.89 -27.7449 1312.25C-67.4325 1333.26 -109.105 1348.22 -153.711 1334.26C-198.992 1320.08 -221.014 1278.06 -232.441 1232.78C-240.778 1199.74 -243.393 1165.39 -245.384 1139.25C-246.126 1129.51 -246.781 1120.91 -247.612 1113.94C-253.519 1064.44 -228.984 1001.06 -186.035 945.615C-143.127 890.219 -82.1305 843.136 -15.699 826.096Z" fill="#7371FF" stroke="white" stroke-width="4"/>
<g filter="url(#filter34_f_96_2)">
<path d="M-16.513 833.135C127.185 796.275 241.534 866.316 251.851 952.759C262.168 1039.2 221.491 1166.55 77.7927 1203.41C6.5832 1221.67 -72.7135 1303.89 -162.454 1282.54C-253.807 1260.81 -248.295 1137.89 -253.499 1094.28C-263.816 1007.84 -160.211 869.994 -16.513 833.135Z" fill="#7371FF"/>
<path d="M-16.276 835.121C55.152 816.799 119.225 825.061 166.683 848.58C214.185 872.122 244.851 910.832 249.914 953.256C255.027 996.094 247.493 1049.04 220.932 1095.8C194.415 1142.48 148.848 1183.14 77.5557 1201.42C59.5098 1206.05 41.0216 1214.71 22.1349 1224.67C14.327 1228.79 6.49029 1233.11 -1.41978 1237.47C-12.7663 1243.72 -24.2639 1250.06 -36.0442 1256C-75.854 1276.1 -117.58 1291.06 -161.805 1280.54C-206.636 1269.88 -227.796 1234.41 -238.401 1195.83C-246.15 1167.64 -248.189 1138.16 -249.746 1115.66C-250.328 1107.25 -250.842 1099.82 -251.562 1093.79C-256.618 1051.42 -233.735 995.99 -191.381 946.373C-149.089 896.829 -87.6574 853.43 -16.276 835.121Z" stroke="white" stroke-width="4"/>
</g>
<g filter="url(#filter35_f_96_2)">
<path d="M-12.1599 832.019C148.898 790.707 278.351 880.015 291.07 986.589C303.79 1093.16 259.716 1248.61 98.658 1289.92C18.846 1310.39 -68.0423 1419.19 -169.2 1390.44C-272.174 1361.18 -268.649 1201.18 -275.066 1147.42C-287.785 1040.85 -173.218 873.332 -12.1599 832.019Z" fill="#7371FF"/>
<path d="M-11.9228 834.005C68.1352 813.47 140.296 825.408 194.001 855.678C247.739 885.967 282.859 934.518 289.133 987.086C295.452 1040.03 287.649 1105.07 258.338 1161.93C229.074 1218.71 178.321 1267.44 98.421 1287.93C78.1633 1293.13 57.5473 1303.9 36.5514 1316.56C27.001 1322.32 17.3376 1328.49 7.57812 1334.72C6.60226 1335.34 5.62544 1335.96 4.64767 1336.59C-6.11915 1343.46 -17.0082 1350.36 -28.0565 1356.88C-72.2707 1382.97 -118.655 1402.62 -168.479 1388.46C-219.091 1374.08 -243.713 1327.53 -256.451 1277.37C-265.784 1240.61 -268.65 1202.36 -270.788 1173.83C-271.572 1163.37 -272.258 1154.22 -273.128 1146.92C-279.396 1094.41 -254.288 1026.49 -207.332 966.422C-160.421 906.407 -91.9274 854.527 -11.9228 834.005Z" stroke="white" stroke-width="4"/>
</g>
<g filter="url(#filter36_f_96_2)">
<path d="M7.93436 839.873C209.903 815.009 391.111 910.985 405.998 1035.72C420.884 1160.45 336.051 1321.17 142.894 1370.72C47.1758 1395.27 -59.6471 1562.78 -180.782 1529.83C-304.093 1496.3 -298.073 1319.43 -305.583 1256.51C-320.469 1131.78 -226.035 868.677 7.93436 839.873Z" fill="#7371FF"/>
<path d="M7.92303 841.906C108.559 829.517 204.006 847.241 276.108 883.563C348.279 919.921 396.721 974.719 404.06 1036.21C418.81 1159.8 334.793 1319.45 142.657 1368.73C118.319 1374.98 93.4126 1390.26 67.9917 1408.94C55.2655 1418.3 42.3619 1428.54 29.3012 1438.97C27.9904 1440.02 26.678 1441.06 25.364 1442.12C13.5744 1451.54 1.65549 1461.07 -10.4228 1470.23C-64.2034 1511.03 -120.45 1544.06 -180.08 1527.85C-240.889 1511.31 -269.945 1459.43 -284.722 1403.43C-295.511 1362.54 -298.609 1319.84 -300.965 1287.38C-301.842 1275.3 -302.616 1264.64 -303.646 1256.01C-311.025 1194.18 -291.29 1097.73 -240.529 1013.15C-189.823 928.663 -108.283 856.212 7.92303 841.906Z" stroke="white" stroke-width="4"/>
</g>
<g filter="url(#filter37_f_96_2)">
<path d="M80.9544 873.167C288.934 819.819 487.161 934.596 501.716 1056.55C516.271 1178.5 423.334 1338.2 215.354 1391.55C112.291 1417.99 -7.2936 1496.63 -136.99 1467.31C-269.017 1437.46 -260.524 1263.87 -267.866 1202.35C-282.421 1080.4 -127.025 926.515 80.9544 873.167Z" fill="#7371FF"/>
<path d="M81.1914 875.153C184.706 848.601 285.831 863.886 362.882 901C440.031 938.161 492.609 996.971 499.779 1057.04C514.176 1177.67 422.257 1336.43 215.117 1389.57C189.226 1396.21 162.328 1406.12 134.596 1416.75C130.08 1418.48 125.543 1420.23 120.983 1421.99C97.5083 1431.05 73.4498 1440.33 48.8047 1448.39C-10.0296 1467.64 -71.9662 1479.86 -136.36 1465.3C-201.53 1450.57 -232.101 1400.4 -247.306 1345.91C-258.415 1306.1 -261.25 1264.36 -263.407 1232.59C-264.211 1220.75 -264.921 1210.3 -265.929 1201.85C-273.089 1141.86 -238.46 1073.6 -175.69 1013.47C-112.977 953.383 -22.4833 901.746 81.1914 875.153Z" stroke="white" stroke-width="4"/>
</g>
<g filter="url(#filter38_f_96_2)">
<path d="M167.712 901.081C382.64 845.951 587.286 962.857 602.173 1087.59C617.059 1212.32 520.851 1375.96 305.923 1431.09C199.416 1458.41 75.7783 1539.19 -58.1741 1509.53C-194.533 1479.34 -185.546 1301.71 -193.056 1238.79C-207.942 1114.06 -47.215 956.211 167.712 901.081Z" fill="#7371FF"/>
<path d="M167.949 903.067C274.943 875.623 379.413 890.997 458.979 928.771C538.646 966.592 592.901 1026.63 600.236 1088.08C614.963 1211.48 519.794 1374.19 305.686 1429.11C278.935 1435.97 251.139 1446.18 222.477 1457.13C217.81 1458.91 213.12 1460.72 208.408 1462.53C184.145 1471.86 159.276 1481.41 133.803 1489.73C72.9911 1509.58 8.97351 1522.25 -57.5512 1507.53C-124.889 1492.62 -156.414 1441.35 -172.055 1385.64C-183.484 1344.94 -186.362 1302.23 -188.552 1269.73C-189.367 1257.63 -190.088 1246.94 -191.119 1238.3C-198.443 1176.93 -162.577 1106.98 -97.6432 1045.28C-32.7695 983.629 60.797 930.552 167.949 903.067Z" stroke="white" stroke-width="4"/>
</g>
<g filter="url(#filter39_f_96_2)">
<path d="M3.69153 922.712C191.753 874.473 373.271 997.312 388.157 1122.04C403.044 1246.77 320.873 1406.82 132.812 1455.06C39.618 1478.96 -69.5766 1541.17 -187.712 1507.45C-307.969 1473.13 -302.644 1296.44 -310.153 1233.52C-325.04 1108.79 -184.37 970.95 3.69153 922.712Z" fill="#7371FF"/>
<path d="M3.92855 924.697C97.4148 900.718 189.347 919.25 259.778 959.341C330.273 999.468 378.872 1060.97 386.22 1122.54C400.976 1246.17 319.565 1405.11 132.575 1453.07C109.305 1459.04 85.0579 1467.38 60.0276 1475.99L59.6319 1476.13C34.4343 1484.8 8.42389 1493.74 -18.3526 1500.88C-71.8811 1515.16 -128.344 1522.21 -186.99 1505.47C-246.273 1488.55 -274.751 1436.53 -289.325 1380.46C-299.964 1339.52 -303.114 1296.83 -305.509 1264.38C-306.4 1252.31 -307.187 1241.65 -308.216 1233.03C-315.551 1171.57 -284.594 1106.61 -228.095 1050.84C-171.611 995.085 -89.7936 948.738 3.92855 924.697Z" stroke="white" stroke-width="4"/>
</g>
</g>
</g>
<defs>
<filter id="filter0_f_96_2" x="-1785.43" y="1871.54" width="2020.31" height="1880.9" filterUnits="userSpaceOnUse" color-interpolation-filters="sRGB">
<feFlood flood-opacity="0" result="BackgroundImageFix"/>
<feBlend mode="normal" in="SourceGraphic" in2="BackgroundImageFix" result="shape"/>
<feGaussianBlur stdDeviation="206" result="effect1_foregroundBlur_96_2"/>
</filter>
<filter id="filter1_f_96_2" x="-1659.91" y="2479.04" width="2001.41" height="1570.35" filterUnits="userSpaceOnUse" color-interpolation-filters="sRGB">
<feFlood flood-opacity="0" result="BackgroundImageFix"/>
<feBlend mode="normal" in="SourceGraphic" in2="BackgroundImageFix" result="shape"/>
<feGaussianBlur stdDeviation="206" result="effect1_foregroundBlur_96_2"/>
</filter>
<filter id="filter2_f_96_2" x="-1299.58" y="1496.07" width="1792.25" height="2207" filterUnits="userSpaceOnUse" color-interpolation-filters="sRGB">
<feFlood flood-opacity="0" result="BackgroundImageFix"/>
<feBlend mode="normal" in="SourceGraphic" in2="BackgroundImageFix" result="shape"/>
<feGaussianBlur stdDeviation="78" result="effect1_foregroundBlur_96_2"/>
</filter>
<filter id="filter3_f_96_2" x="-843.475" y="1823.17" width="925.77" height="742.068" filterUnits="userSpaceOnUse" color-interpolation-filters="sRGB">
<feFlood flood-opacity="0" result="BackgroundImageFix"/>
<feBlend mode="normal" in="SourceGraphic" in2="BackgroundImageFix" result="shape"/>
<feGaussianBlur stdDeviation="106" result="effect1_foregroundBlur_96_2"/>
</filter>
<filter id="filter4_f_96_2" x="-1307.77" y="3373.18" width="2593.51" height="2549.02" filterUnits="userSpaceOnUse" color-interpolation-filters="sRGB">
<feFlood flood-opacity="0" result="BackgroundImageFix"/>
<feBlend mode="normal" in="SourceGraphic" in2="BackgroundImageFix" result="shape"/>
<feGaussianBlur stdDeviation="206" result="effect1_foregroundBlur_96_2"/>
</filter>
<filter id="filter5_f_96_2" x="-1853.18" y="3392.89" width="2153.03" height="2426" filterUnits="userSpaceOnUse" color-interpolation-filters="sRGB">
<feFlood flood-opacity="0" result="BackgroundImageFix"/>
<feBlend mode="normal" in="SourceGraphic" in2="BackgroundImageFix" result="shape"/>
<feGaussianBlur stdDeviation="206" result="effect1_foregroundBlur_96_2"/>
</filter>
<filter id="filter6_f_96_2" x="-1505.64" y="4151.53" width="3456.72" height="2514.72" filterUnits="userSpaceOnUse" color-interpolation-filters="sRGB">
<feFlood flood-opacity="0" result="BackgroundImageFix"/>
<feBlend mode="normal" in="SourceGraphic" in2="BackgroundImageFix" result="shape"/>
<feGaussianBlur stdDeviation="78" result="effect1_foregroundBlur_96_2"/>
</filter>
<filter id="filter11_f_96_2" x="-831.164" y="4323.75" width="1482.31" height="1264.11" filterUnits="userSpaceOnUse" color-interpolation-filters="sRGB">
<feFlood flood-opacity="0" result="BackgroundImageFix"/>
<feBlend mode="normal" in="SourceGraphic" in2="BackgroundImageFix" result="shape"/>
<feGaussianBlur stdDeviation="106" result="effect1_foregroundBlur_96_2"/>
</filter>
<filter id="filter14_f_96_2" x="-1556.2" y="4034.54" width="1796.92" height="1367.63" filterUnits="userSpaceOnUse" color-interpolation-filters="sRGB">
<feFlood flood-opacity="0" result="BackgroundImageFix"/>
<feBlend mode="normal" in="SourceGraphic" in2="BackgroundImageFix" result="shape"/>
<feGaussianBlur stdDeviation="126.295" result="effect1_foregroundBlur_96_2"/>
</filter>
<filter id="filter15_f_96_2" x="852.381" y="2273.6" width="1987.49" height="1916.66" filterUnits="userSpaceOnUse" color-interpolation-filters="sRGB">
<feFlood flood-opacity="0" result="BackgroundImageFix"/>
<feBlend mode="normal" in="SourceGraphic" in2="BackgroundImageFix" result="shape"/>
<feGaussianBlur stdDeviation="206" result="effect1_foregroundBlur_96_2"/>
</filter>
<filter id="filter16_f_96_2" x="874.002" y="2850.39" width="1911.4" height="1696.27" filterUnits="userSpaceOnUse" color-interpolation-filters="sRGB">
<feFlood flood-opacity="0" result="BackgroundImageFix"/>
<feBlend mode="normal" in="SourceGraphic" in2="BackgroundImageFix" result="shape"/>
<feGaussianBlur stdDeviation="206" result="effect1_foregroundBlur_96_2"/>
</filter>
<filter id="filter22_f_96_2" x="1361.22" y="2993.11" width="1083.63" height="1300.43" filterUnits="userSpaceOnUse" color-interpolation-filters="sRGB">
<feFlood flood-opacity="0" result="BackgroundImageFix"/>
<feBlend mode="normal" in="SourceGraphic" in2="BackgroundImageFix" result="shape"/>
<feGaussianBlur stdDeviation="126.295" result="effect1_foregroundBlur_96_2"/>
</filter>
<filter id="filter24_f_96_2" x="-455" y="-36.0517" width="1981" height="1955.76" filterUnits="userSpaceOnUse" color-interpolation-filters="sRGB">
<feFlood flood-opacity="0" result="BackgroundImageFix"/>
<feBlend mode="normal" in="SourceGraphic" in2="BackgroundImageFix" result="shape"/>
<feGaussianBlur stdDeviation="206" result="effect1_foregroundBlur_96_2"/>
</filter>
<filter id="filter25_f_96_2" x="-710" y="183.851" width="1596" height="1955.76" filterUnits="userSpaceOnUse" color-interpolation-filters="sRGB">
<feFlood flood-opacity="0" result="BackgroundImageFix"/>
<feBlend mode="normal" in="SourceGraphic" in2="BackgroundImageFix" result="shape"/>
<feGaussianBlur stdDeviation="206" result="effect1_foregroundBlur_96_2"/>
</filter>
<filter id="filter26_f_96_2" x="-233" y="251.665" width="2302" height="1688.19" filterUnits="userSpaceOnUse" color-interpolation-filters="sRGB">
<feFlood flood-opacity="0" result="BackgroundImageFix"/>
<feBlend mode="normal" in="SourceGraphic" in2="BackgroundImageFix" result="shape"/>
<feGaussianBlur stdDeviation="78" result="effect1_foregroundBlur_96_2"/>
</filter>
<filter id="filter27_f_96_2" x="642.446" y="621.098" width="918.917" height="1176.28" filterUnits="userSpaceOnUse" color-interpolation-filters="sRGB">
<feFlood flood-opacity="0" result="BackgroundImageFix"/>
<feBlend mode="normal" in="SourceGraphic" in2="BackgroundImageFix" result="shape"/>
<feGaussianBlur stdDeviation="10" result="effect1_foregroundBlur_96_2"/>
</filter>
<filter id="filter28_f_96_2" x="618.449" y="665.87" width="869.895" height="1140.98" filterUnits="userSpaceOnUse" color-interpolation-filters="sRGB">
<feFlood flood-opacity="0" result="BackgroundImageFix"/>
<feBlend mode="normal" in="SourceGraphic" in2="BackgroundImageFix" result="shape"/>
<feGaussianBlur stdDeviation="14" result="effect1_foregroundBlur_96_2"/>
</filter>
<filter id="filter29_f_96_2" x="594.453" y="584.909" width="1039.18" height="1229.95" filterUnits="userSpaceOnUse" color-interpolation-filters="sRGB">
<feFlood flood-opacity="0" result="BackgroundImageFix"/>
<feBlend mode="normal" in="SourceGraphic" in2="BackgroundImageFix" result="shape"/>
<feGaussianBlur stdDeviation="18" result="effect1_foregroundBlur_96_2"/>
</filter>
<filter id="filter30_f_96_2" x="527.469" y="641.89" width="949.874" height="1180.42" filterUnits="userSpaceOnUse" color-interpolation-filters="sRGB">
<feFlood flood-opacity="0" result="BackgroundImageFix"/>
<feBlend mode="normal" in="SourceGraphic" in2="BackgroundImageFix" result="shape"/>
<feGaussianBlur stdDeviation="26" result="effect1_foregroundBlur_96_2"/>
</filter>
<filter id="filter31_f_96_2" x="937" y="687.316" width="753" height="906.318" filterUnits="userSpaceOnUse" color-interpolation-filters="sRGB">
<feFlood flood-opacity="0" result="BackgroundImageFix"/>
<feBlend mode="normal" in="SourceGraphic" in2="BackgroundImageFix" result="shape"/>
<feGaussianBlur stdDeviation="106" result="effect1_foregroundBlur_96_2"/>
</filter>
<filter id="filter32_f_96_2" x="5.99951" y="693.18" width="1161" height="906.318" filterUnits="userSpaceOnUse" color-interpolation-filters="sRGB">
<feFlood flood-opacity="0" result="BackgroundImageFix"/>
<feBlend mode="normal" in="SourceGraphic" in2="BackgroundImageFix" result="shape"/>
<feGaussianBlur stdDeviation="106" result="effect1_foregroundBlur_96_2"/>
</filter>
<filter id="filter33_f_96_2" x="590.984" y="696.961" width="679.643" height="759.719" filterUnits="userSpaceOnUse" color-interpolation-filters="sRGB">
<feFlood flood-opacity="0" result="BackgroundImageFix"/>
<feBlend mode="normal" in="SourceGraphic" in2="BackgroundImageFix" result="shape"/>
<feGaussianBlur stdDeviation="106" result="effect1_foregroundBlur_96_2"/>
</filter>
<filter id="filter34_f_96_2" x="-261.747" y="815.539" width="522.653" height="478.051" filterUnits="userSpaceOnUse" color-interpolation-filters="sRGB">
<feFlood flood-opacity="0" result="BackgroundImageFix"/>
<feBlend mode="normal" in="SourceGraphic" in2="BackgroundImageFix" result="shape"/>
<feGaussianBlur stdDeviation="3.76999" result="effect1_foregroundBlur_96_2"/>
</filter>
<filter id="filter35_f_96_2" x="-302.419" y="795.328" width="621.938" height="626.309" filterUnits="userSpaceOnUse" color-interpolation-filters="sRGB">
<feFlood flood-opacity="0" result="BackgroundImageFix"/>
<feBlend mode="normal" in="SourceGraphic" in2="BackgroundImageFix" result="shape"/>
<feGaussianBlur stdDeviation="13.195" result="effect1_foregroundBlur_96_2"/>
</filter>
<filter id="filter36_f_96_2" x="-344.794" y="798.23" width="790.154" height="773.58" filterUnits="userSpaceOnUse" color-interpolation-filters="sRGB">
<feFlood flood-opacity="0" result="BackgroundImageFix"/>
<feBlend mode="normal" in="SourceGraphic" in2="BackgroundImageFix" result="shape"/>
<feGaussianBlur stdDeviation="18.8499" result="effect1_foregroundBlur_96_2"/>
</filter>
<filter id="filter37_f_96_2" x="-370.6" y="757.952" width="975.581" height="817.596" filterUnits="userSpaceOnUse" color-interpolation-filters="sRGB">
<feFlood flood-opacity="0" result="BackgroundImageFix"/>
<feBlend mode="normal" in="SourceGraphic" in2="BackgroundImageFix" result="shape"/>
<feGaussianBlur stdDeviation="50.8948" result="effect1_foregroundBlur_96_2"/>
</filter>
<filter id="filter38_f_96_2" x="-446.601" y="634.474" width="1302.86" height="1134.09" filterUnits="userSpaceOnUse" color-interpolation-filters="sRGB">
<feFlood flood-opacity="0" result="BackgroundImageFix"/>
<feBlend mode="normal" in="SourceGraphic" in2="BackgroundImageFix" result="shape"/>
<feGaussianBlur stdDeviation="126.295" result="effect1_foregroundBlur_96_2"/>
</filter>
<filter id="filter39_f_96_2" x="-428.103" y="795.109" width="934.839" height="839.011" filterUnits="userSpaceOnUse" color-interpolation-filters="sRGB">
<feFlood flood-opacity="0" result="BackgroundImageFix"/>
<feBlend mode="normal" in="SourceGraphic" in2="BackgroundImageFix" result="shape"/>
<feGaussianBlur stdDeviation="58.4348" result="effect1_foregroundBlur_96_2"/>
</filter>
<radialGradient id="paint0_radial_96_2" cx="0" cy="0" r="1" gradientUnits="userSpaceOnUse" gradientTransform="translate(-746.548 2161.35) rotate(2.39018) scale(514.637 528.994)">
<stop offset="0.120131" stop-color="#C4C4C4"/>
<stop offset="0.692585" stop-color="#C4C4C4" stop-opacity="0"/>
</radialGradient>
<radialGradient id="paint1_radial_96_2" cx="0" cy="0" r="1" gradientUnits="userSpaceOnUse" gradientTransform="translate(1042.63 4984.85) rotate(102.635) scale(735.997 895.001)">
<stop offset="0.120131" stop-color="#C4C4C4"/>
<stop offset="0.692585" stop-color="#C4C4C4" stop-opacity="0"/>
</radialGradient>
<linearGradient id="paint2_linear_96_2" x1="-784.406" y1="4121.02" x2="-1027.13" y2="5242.51" gradientUnits="userSpaceOnUse">
<stop stop-color="#C4C4C4"/>
<stop offset="1" stop-color="#C4C4C4" stop-opacity="0"/>
</linearGradient>
<linearGradient id="paint3_linear_96_2" x1="1502.59" y1="3658.1" x2="2281.36" y2="3829.32" gradientUnits="userSpaceOnUse">
<stop stop-color="#C4C4C4"/>
<stop offset="1" stop-color="#C4C4C4" stop-opacity="0"/>
</linearGradient>
<radialGradient id="paint4_radial_96_2" cx="0" cy="0" r="1" gradientUnits="userSpaceOnUse" gradientTransform="translate(1238.29 801.948) rotate(74.289) scale(487.537 580.282)">
<stop offset="0.120131" stop-color="#C4C4C4"/>
<stop offset="0.692585" stop-color="#C4C4C4" stop-opacity="0"/>
</radialGradient>
<linearGradient id="paint5_linear_96_2" x1="-67.2069" y1="882.002" x2="153.873" y2="1609.08" gradientUnits="userSpaceOnUse">
<stop stop-color="#C4C4C4"/>
<stop offset="1" stop-color="#C4C4C4" stop-opacity="0"/>
</linearGradient>
<clipPath id="clip0_96_2">
<rect width="1440" height="4750" fill="white"/>
</clipPath>
</defs>
</svg>
